<svg width="232" height="183" viewBox="0 0 232 183" fill="none" xmlns="http://www.w3.org/2000/svg">
<g clip-path="url(#clip0_39_4848)">
<path d="M78.5859 67H43.5V60.0391L60.0586 42.3906C62.332 39.9062 64.0078 37.7383 65.0859 35.8867C66.1875 34.0352 66.7383 32.2773 66.7383 30.6133C66.7383 28.3398 66.1641 26.5586 65.0156 25.2695C63.8672 23.957 62.2266 23.3008 60.0938 23.3008C57.7969 23.3008 55.9805 24.0977 54.6445 25.6914C53.332 27.2617 52.6758 29.3359 52.6758 31.9141H42.4805C42.4805 28.7969 43.2188 25.9492 44.6953 23.3711C46.1953 20.793 48.3047 18.7773 51.0234 17.3242C53.7422 15.8477 56.8242 15.1094 60.2695 15.1094C65.543 15.1094 69.6328 16.375 72.5391 18.9062C75.4688 21.4375 76.9336 25.0117 76.9336 29.6289C76.9336 32.1602 76.2773 34.7383 74.9648 37.3633C73.6523 39.9883 71.4023 43.0469 68.2148 46.5391L56.5781 58.8086H78.5859V67ZM114.902 47.7344H120.703V55.9258H114.902V67H104.742V55.9258H83.7539L83.2969 49.5273L104.637 15.8125H114.902V47.7344ZM93.4219 47.7344H104.742V29.6641L104.074 30.8242L93.4219 47.7344ZM129.809 71.3945H122.25L141.094 15.8125H148.652L129.809 71.3945ZM187.922 21.5078L168.129 67H157.406L177.234 24.0391H151.781V15.8125H187.922V21.5078Z" fill="#FFBE3B"/>
<path d="M44.7085 42H1V182H231V42H188.565" stroke="#B7C136"/>
<path d="M31.6094 112.325L34.125 106.604H35.7041V114H34.4395V108.62L32.0469 114H31.1719L28.7314 108.504V114H27.4668V106.604H29.1074L31.6094 112.325ZM39.1221 109.153H41.043C41.8815 109.162 42.5446 109.381 43.0322 109.81C43.5199 110.238 43.7637 110.819 43.7637 111.553C43.7637 112.291 43.513 112.883 43.0117 113.33C42.5104 113.777 41.8359 114 40.9883 114H37.8574V106.604H39.1221V109.153ZM46.4023 114H45.1309V106.604H46.4023V114ZM39.1221 110.186V112.968H41.002C41.4759 112.968 41.8428 112.847 42.1025 112.605C42.3623 112.359 42.4922 112.024 42.4922 111.601C42.4922 111.19 42.3646 110.855 42.1094 110.596C41.8587 110.331 41.5055 110.195 41.0498 110.186H39.1221ZM58.1328 114H56.8682V107.649H53.4639V114H52.1924V106.604H58.1328V114ZM66.4111 110.384C66.4111 111.509 66.1536 112.416 65.6387 113.104C65.1237 113.793 64.4264 114.137 63.5469 114.137C62.6491 114.137 61.9427 113.852 61.4277 113.282V116.844H60.1631V106.604H61.3184L61.3799 107.424C61.8949 106.786 62.6104 106.467 63.5264 106.467C64.415 106.467 65.1169 106.802 65.6318 107.472C66.1514 108.142 66.4111 109.074 66.4111 110.268V110.384ZM65.1465 110.24C65.1465 109.406 64.9688 108.748 64.6133 108.265C64.2578 107.782 63.7702 107.54 63.1504 107.54C62.3848 107.54 61.8105 107.88 61.4277 108.559V112.093C61.806 112.767 62.3848 113.104 63.1641 113.104C63.7702 113.104 64.251 112.865 64.6064 112.387C64.9665 111.904 65.1465 111.188 65.1465 110.24ZM72.8096 106.604H74.0742V114H72.8096V108.606L69.3984 114H68.1338V106.604H69.3984V112.004L72.8096 106.604ZM82.1475 114H80.8828V110.842H77.4854V114H76.2139V106.604H77.4854V109.81H80.8828V106.604H82.1475V114ZM88.9697 106.604H90.2344V114H88.9697V108.606L85.5586 114H84.2939V106.604H85.5586V112.004L88.9697 106.604ZM96.5234 112.325L99.0391 106.604H100.618V114H99.3535V108.62L96.9609 114H96.0859L93.6455 108.504V114H92.3809V106.604H94.0215L96.5234 112.325ZM107.222 114C107.149 113.854 107.09 113.594 107.044 113.221C106.456 113.831 105.754 114.137 104.938 114.137C104.209 114.137 103.61 113.932 103.141 113.521C102.676 113.107 102.443 112.583 102.443 111.949C102.443 111.179 102.735 110.582 103.318 110.158C103.906 109.73 104.731 109.516 105.793 109.516H107.023V108.935C107.023 108.493 106.891 108.142 106.627 107.882C106.363 107.618 105.973 107.485 105.458 107.485C105.007 107.485 104.629 107.599 104.323 107.827C104.018 108.055 103.865 108.331 103.865 108.654H102.594C102.594 108.285 102.724 107.93 102.983 107.588C103.248 107.242 103.603 106.968 104.05 106.768C104.501 106.567 104.995 106.467 105.533 106.467C106.385 106.467 107.053 106.681 107.536 107.109C108.019 107.533 108.27 108.119 108.288 108.866V112.271C108.288 112.95 108.375 113.49 108.548 113.891V114H107.222ZM105.123 113.036C105.52 113.036 105.896 112.934 106.251 112.729C106.606 112.523 106.864 112.257 107.023 111.929V110.411H106.032C104.483 110.411 103.708 110.865 103.708 111.771C103.708 112.168 103.84 112.478 104.104 112.701C104.369 112.924 104.708 113.036 105.123 113.036ZM113.34 114.137C112.337 114.137 111.521 113.809 110.893 113.152C110.264 112.492 109.949 111.61 109.949 110.507V110.274C109.949 109.541 110.088 108.887 110.366 108.312C110.649 107.734 111.041 107.283 111.542 106.959C112.048 106.631 112.595 106.467 113.183 106.467C114.144 106.467 114.892 106.784 115.425 107.417C115.958 108.05 116.225 108.957 116.225 110.138V110.664H111.214C111.232 111.393 111.444 111.983 111.85 112.435C112.26 112.881 112.779 113.104 113.408 113.104C113.855 113.104 114.233 113.013 114.543 112.831C114.853 112.649 115.124 112.407 115.356 112.106L116.129 112.708C115.509 113.66 114.579 114.137 113.34 114.137ZM113.183 107.506C112.672 107.506 112.244 107.693 111.897 108.066C111.551 108.436 111.337 108.955 111.255 109.625H114.96V109.529C114.924 108.887 114.75 108.39 114.44 108.039C114.131 107.684 113.711 107.506 113.183 107.506ZM121.953 112.325L124.469 106.604H126.048V114H124.783V108.62L122.391 114H121.516L119.075 108.504V114H117.811V106.604H119.451L121.953 112.325ZM131.223 110.233C131.223 109.509 131.364 108.857 131.646 108.278C131.934 107.7 132.33 107.253 132.836 106.938C133.346 106.624 133.927 106.467 134.579 106.467C135.586 106.467 136.4 106.815 137.02 107.513C137.644 108.21 137.956 109.137 137.956 110.295V110.384C137.956 111.104 137.817 111.751 137.539 112.325C137.266 112.895 136.871 113.339 136.356 113.658C135.846 113.977 135.258 114.137 134.593 114.137C133.59 114.137 132.777 113.788 132.152 113.091C131.533 112.394 131.223 111.471 131.223 110.322V110.233ZM132.494 110.384C132.494 111.204 132.683 111.863 133.062 112.359C133.444 112.856 133.955 113.104 134.593 113.104C135.235 113.104 135.746 112.854 136.124 112.353C136.502 111.847 136.691 111.14 136.691 110.233C136.691 109.422 136.498 108.766 136.11 108.265C135.728 107.759 135.217 107.506 134.579 107.506C133.955 107.506 133.451 107.754 133.068 108.251C132.686 108.748 132.494 109.459 132.494 110.384ZM142.789 107.027C143.719 107.027 144.462 107.34 145.018 107.964C145.578 108.584 145.858 109.402 145.858 110.418V110.534C145.858 111.231 145.724 111.856 145.455 112.407C145.186 112.954 144.799 113.38 144.293 113.686C143.792 113.986 143.213 114.137 142.557 114.137C141.563 114.137 140.763 113.806 140.157 113.146C139.551 112.48 139.248 111.589 139.248 110.473V109.857C139.248 108.303 139.535 107.068 140.109 106.152C140.688 105.236 141.54 104.678 142.666 104.478C143.304 104.364 143.735 104.225 143.958 104.061C144.181 103.896 144.293 103.671 144.293 103.384H145.332C145.332 103.953 145.202 104.398 144.942 104.717C144.687 105.036 144.277 105.261 143.712 105.394L142.769 105.605C142.017 105.783 141.451 106.084 141.073 106.508C140.7 106.927 140.456 107.488 140.342 108.189C141.012 107.415 141.827 107.027 142.789 107.027ZM142.543 108.066C141.923 108.066 141.431 108.276 141.066 108.695C140.702 109.11 140.52 109.687 140.52 110.425V110.534C140.52 111.327 140.702 111.956 141.066 112.421C141.436 112.881 141.932 113.111 142.557 113.111C143.186 113.111 143.682 112.879 144.047 112.414C144.411 111.949 144.594 111.27 144.594 110.377C144.594 109.68 144.409 109.121 144.04 108.702C143.675 108.278 143.176 108.066 142.543 108.066ZM153.405 110.384C153.405 111.509 153.148 112.416 152.633 113.104C152.118 113.793 151.421 114.137 150.541 114.137C149.643 114.137 148.937 113.852 148.422 113.282V116.844H147.157V106.604H148.312L148.374 107.424C148.889 106.786 149.604 106.467 150.521 106.467C151.409 106.467 152.111 106.802 152.626 107.472C153.146 108.142 153.405 109.074 153.405 110.268V110.384ZM152.141 110.24C152.141 109.406 151.963 108.748 151.607 108.265C151.252 107.782 150.764 107.54 150.145 107.54C149.379 107.54 148.805 107.88 148.422 108.559V112.093C148.8 112.767 149.379 113.104 150.158 113.104C150.764 113.104 151.245 112.865 151.601 112.387C151.961 111.904 152.141 111.188 152.141 110.24ZM159.585 114C159.512 113.854 159.453 113.594 159.407 113.221C158.819 113.831 158.118 114.137 157.302 114.137C156.573 114.137 155.973 113.932 155.504 113.521C155.039 113.107 154.807 112.583 154.807 111.949C154.807 111.179 155.098 110.582 155.682 110.158C156.27 109.73 157.094 109.516 158.156 109.516H159.387V108.935C159.387 108.493 159.255 108.142 158.99 107.882C158.726 107.618 158.336 107.485 157.821 107.485C157.37 107.485 156.992 107.599 156.687 107.827C156.381 108.055 156.229 108.331 156.229 108.654H154.957C154.957 108.285 155.087 107.93 155.347 107.588C155.611 107.242 155.966 106.968 156.413 106.768C156.864 106.567 157.359 106.467 157.896 106.467C158.749 106.467 159.416 106.681 159.899 107.109C160.382 107.533 160.633 108.119 160.651 108.866V112.271C160.651 112.95 160.738 113.49 160.911 113.891V114H159.585ZM157.486 113.036C157.883 113.036 158.259 112.934 158.614 112.729C158.97 112.523 159.227 112.257 159.387 111.929V110.411H158.396C156.846 110.411 156.071 110.865 156.071 111.771C156.071 112.168 156.203 112.478 156.468 112.701C156.732 112.924 157.072 113.036 157.486 113.036ZM163.939 106.604V112.968H166.646V106.604H167.911V112.968H170.611V106.604H171.883V112.968H172.922L172.799 116.194H171.664V114H162.668V106.604H163.939ZM177.365 114.137C176.363 114.137 175.547 113.809 174.918 113.152C174.289 112.492 173.975 111.61 173.975 110.507V110.274C173.975 109.541 174.114 108.887 174.392 108.312C174.674 107.734 175.066 107.283 175.567 106.959C176.073 106.631 176.62 106.467 177.208 106.467C178.17 106.467 178.917 106.784 179.45 107.417C179.983 108.05 180.25 108.957 180.25 110.138V110.664H175.239C175.257 111.393 175.469 111.983 175.875 112.435C176.285 112.881 176.805 113.104 177.434 113.104C177.88 113.104 178.258 113.013 178.568 112.831C178.878 112.649 179.149 112.407 179.382 112.106L180.154 112.708C179.535 113.66 178.605 114.137 177.365 114.137ZM177.208 107.506C176.698 107.506 176.269 107.693 175.923 108.066C175.576 108.436 175.362 108.955 175.28 109.625H178.985V109.529C178.949 108.887 178.776 108.39 178.466 108.039C178.156 107.684 177.737 107.506 177.208 107.506ZM187.763 114H186.498V110.842H183.101V114H181.829V106.604H183.101V109.81H186.498V106.604H187.763V114ZM194.585 106.604H195.85V114H194.585V108.606L191.174 114H189.909V106.604H191.174V112.004L194.585 106.604ZM203.533 106.604V114H202.262V111.122H200.354L198.611 114H197.244L199.104 110.931C198.63 110.757 198.265 110.491 198.01 110.131C197.759 109.766 197.634 109.342 197.634 108.859C197.634 108.185 197.887 107.643 198.393 107.232C198.898 106.818 199.575 106.608 200.423 106.604H203.533ZM198.905 108.873C198.905 109.233 199.028 109.525 199.274 109.748C199.521 109.967 199.846 110.078 200.252 110.083H202.262V107.629H200.443C199.974 107.629 199.6 107.745 199.322 107.978C199.044 108.205 198.905 108.504 198.905 108.873ZM82.8037 134.137C81.8011 134.137 80.9854 133.809 80.3564 133.152C79.7275 132.492 79.4131 131.61 79.4131 130.507V130.274C79.4131 129.541 79.5521 128.887 79.8301 128.312C80.1126 127.734 80.5046 127.283 81.0059 126.959C81.5117 126.631 82.0586 126.467 82.6465 126.467C83.6081 126.467 84.3555 126.784 84.8887 127.417C85.4219 128.05 85.6885 128.957 85.6885 130.138V130.664H80.6777C80.696 131.393 80.9079 131.983 81.3135 132.435C81.7236 132.881 82.2432 133.104 82.8721 133.104C83.3187 133.104 83.6969 133.013 84.0068 132.831C84.3167 132.649 84.5879 132.407 84.8203 132.106L85.5928 132.708C84.973 133.66 84.0433 134.137 82.8037 134.137ZM82.6465 127.506C82.1361 127.506 81.7077 127.693 81.3613 128.066C81.015 128.436 80.8008 128.955 80.7188 129.625H84.4238V129.529C84.3874 128.887 84.2142 128.39 83.9043 128.039C83.5944 127.684 83.1751 127.506 82.6465 127.506ZM93.0576 130.787H92.1689V134H90.9043V130.787H90.0156L87.9443 134H86.3447L88.9902 130.172L86.5977 126.604H88.1289L90.0361 129.666H90.9043V126.604H92.1689V129.666H93.0303L94.9512 126.604H96.4824L94.083 130.179L96.7285 134H95.1289L93.0576 130.787ZM100.81 134.137C99.807 134.137 98.9912 133.809 98.3623 133.152C97.7334 132.492 97.4189 131.61 97.4189 130.507V130.274C97.4189 129.541 97.5579 128.887 97.8359 128.312C98.1185 127.734 98.5104 127.283 99.0117 126.959C99.5176 126.631 100.064 126.467 100.652 126.467C101.614 126.467 102.361 126.784 102.895 127.417C103.428 128.05 103.694 128.957 103.694 130.138V130.664H98.6836C98.7018 131.393 98.9137 131.983 99.3193 132.435C99.7295 132.881 100.249 133.104 100.878 133.104C101.325 133.104 101.703 133.013 102.013 132.831C102.323 132.649 102.594 132.407 102.826 132.106L103.599 132.708C102.979 133.66 102.049 134.137 100.81 134.137ZM100.652 127.506C100.142 127.506 99.7135 127.693 99.3672 128.066C99.0208 128.436 98.8066 128.955 98.7246 129.625H102.43V129.529C102.393 128.887 102.22 128.39 101.91 128.039C101.6 127.684 101.181 127.506 100.652 127.506ZM105.103 132.968L105.54 132.428C106.032 131.79 106.312 130.833 106.381 129.557L106.497 126.604H111.262V132.968H112.212V136.174H110.947V134H105.786V136.174H104.521L104.528 132.968H105.103ZM106.6 132.968H109.997V127.772H107.721L107.646 129.536C107.568 131.008 107.219 132.152 106.6 132.968ZM119.656 134H118.392V130.842H114.994V134H113.723V126.604H114.994V129.81H118.392V126.604H119.656V134ZM124.763 134.137C123.76 134.137 122.944 133.809 122.315 133.152C121.687 132.492 121.372 131.61 121.372 130.507V130.274C121.372 129.541 121.511 128.887 121.789 128.312C122.072 127.734 122.464 127.283 122.965 126.959C123.471 126.631 124.018 126.467 124.605 126.467C125.567 126.467 126.314 126.784 126.848 127.417C127.381 128.05 127.647 128.957 127.647 130.138V130.664H122.637C122.655 131.393 122.867 131.983 123.272 132.435C123.683 132.881 124.202 133.104 124.831 133.104C125.278 133.104 125.656 133.013 125.966 132.831C126.276 132.649 126.547 132.407 126.779 132.106L127.552 132.708C126.932 133.66 126.002 134.137 124.763 134.137ZM124.605 127.506C124.095 127.506 123.667 127.693 123.32 128.066C122.974 128.436 122.76 128.955 122.678 129.625H126.383V129.529C126.346 128.887 126.173 128.39 125.863 128.039C125.553 127.684 125.134 127.506 124.605 127.506ZM129.233 134V126.604H132.118C133.103 126.604 133.857 126.777 134.381 127.123C134.91 127.465 135.174 127.968 135.174 128.634C135.174 128.976 135.071 129.285 134.866 129.563C134.661 129.837 134.358 130.047 133.957 130.192C134.404 130.297 134.761 130.502 135.03 130.808C135.304 131.113 135.44 131.478 135.44 131.901C135.44 132.58 135.19 133.1 134.688 133.46C134.192 133.82 133.488 134 132.576 134H129.233ZM130.498 130.753V132.981H132.59C133.118 132.981 133.513 132.883 133.772 132.688C134.037 132.492 134.169 132.216 134.169 131.86C134.169 131.122 133.627 130.753 132.542 130.753H130.498ZM130.498 129.741H132.132C133.317 129.741 133.909 129.395 133.909 128.702C133.909 128.009 133.349 127.652 132.228 127.629H130.498V129.741ZM143.158 134H141.894V130.842H138.496V134H137.225V126.604H138.496V129.81H141.894V126.604H143.158V134ZM144.86 130.233C144.86 129.509 145.002 128.857 145.284 128.278C145.571 127.7 145.968 127.253 146.474 126.938C146.984 126.624 147.565 126.467 148.217 126.467C149.224 126.467 150.037 126.815 150.657 127.513C151.282 128.21 151.594 129.137 151.594 130.295V130.384C151.594 131.104 151.455 131.751 151.177 132.325C150.903 132.895 150.509 133.339 149.994 133.658C149.484 133.977 148.896 134.137 148.23 134.137C147.228 134.137 146.414 133.788 145.79 133.091C145.17 132.394 144.86 131.471 144.86 130.322V130.233ZM146.132 130.384C146.132 131.204 146.321 131.863 146.699 132.359C147.082 132.856 147.592 133.104 148.23 133.104C148.873 133.104 149.383 132.854 149.762 132.353C150.14 131.847 150.329 131.14 150.329 130.233C150.329 129.422 150.135 128.766 149.748 128.265C149.365 127.759 148.855 127.506 148.217 127.506C147.592 127.506 147.089 127.754 146.706 128.251C146.323 128.748 146.132 129.459 146.132 130.384Z" fill="#706A5E"/>
</g>
<defs>
<clipPath id="clip0_39_4848">
<rect width="232" height="183" fill="white"/>
</clipPath>
</defs>
</svg>
