<svg width="232" height="183" viewBox="0 0 232 183" fill="none" xmlns="http://www.w3.org/2000/svg">
<g clip-path="url(#clip0_39_4844)">
<path d="M79.1484 41.8281L82.1016 15.8125H110.789V24.2852H90.4336L89.168 35.2891C91.582 34 94.1484 33.3555 96.8672 33.3555C101.742 33.3555 105.562 34.8672 108.328 37.8906C111.094 40.9141 112.477 45.1445 112.477 50.582C112.477 53.8867 111.773 56.8516 110.367 59.4766C108.984 62.0781 106.992 64.1055 104.391 65.5586C101.789 66.9883 98.7188 67.7031 95.1797 67.7031C92.0859 67.7031 89.2148 67.082 86.5664 65.8398C83.918 64.5742 81.8203 62.8047 80.2734 60.5312C78.75 58.2578 77.9414 55.668 77.8477 52.7617H87.9023C88.1133 54.8945 88.8516 56.5586 90.1172 57.7539C91.4062 58.9258 93.082 59.5117 95.1445 59.5117C97.4414 59.5117 99.2109 58.6914 100.453 57.0508C101.695 55.3867 102.316 53.043 102.316 50.0195C102.316 47.1133 101.602 44.8867 100.172 43.3398C98.7422 41.793 96.7148 41.0195 94.0898 41.0195C91.6758 41.0195 89.7188 41.6523 88.2188 42.918L87.2344 43.832L79.1484 41.8281ZM153.785 21.5078L133.992 67H123.27L143.098 24.0391H117.645V15.8125H153.785V21.5078Z" fill="#5795AA"/>
<path d="M44.7085 42H1V182H231V42H188.565" stroke="#B7C136"/>
<path d="M39.8809 113.104C40.332 113.104 40.7262 112.968 41.0635 112.694C41.4007 112.421 41.5876 112.079 41.624 111.669H42.8203C42.7975 112.093 42.6517 112.496 42.3828 112.879C42.1139 113.262 41.7539 113.567 41.3027 113.795C40.8561 114.023 40.3822 114.137 39.8809 114.137C38.8737 114.137 38.0716 113.802 37.4746 113.132C36.8822 112.457 36.5859 111.537 36.5859 110.37V110.158C36.5859 109.438 36.7181 108.798 36.9824 108.237C37.2467 107.677 37.625 107.242 38.1172 106.932C38.6139 106.622 39.1995 106.467 39.874 106.467C40.7035 106.467 41.3916 106.715 41.9385 107.212C42.4899 107.709 42.7839 108.354 42.8203 109.146H41.624C41.5876 108.668 41.4053 108.276 41.0771 107.971C40.7536 107.661 40.3525 107.506 39.874 107.506C39.2314 107.506 38.7324 107.738 38.377 108.203C38.026 108.663 37.8506 109.331 37.8506 110.206V110.445C37.8506 111.298 38.026 111.954 38.377 112.414C38.7279 112.874 39.2292 113.104 39.8809 113.104ZM47.3115 114.137C46.3089 114.137 45.4932 113.809 44.8643 113.152C44.2354 112.492 43.9209 111.61 43.9209 110.507V110.274C43.9209 109.541 44.0599 108.887 44.3379 108.312C44.6204 107.734 45.0124 107.283 45.5137 106.959C46.0195 106.631 46.5664 106.467 47.1543 106.467C48.1159 106.467 48.8633 106.784 49.3965 107.417C49.9297 108.05 50.1963 108.957 50.1963 110.138V110.664H45.1855C45.2038 111.393 45.4157 111.983 45.8213 112.435C46.2314 112.881 46.751 113.104 47.3799 113.104C47.8265 113.104 48.2048 113.013 48.5146 112.831C48.8245 112.649 49.0957 112.407 49.3281 112.106L50.1006 112.708C49.4808 113.66 48.5511 114.137 47.3115 114.137ZM47.1543 107.506C46.6439 107.506 46.2155 107.693 45.8691 108.066C45.5228 108.436 45.3086 108.955 45.2266 109.625H48.9316V109.529C48.8952 108.887 48.722 108.39 48.4121 108.039C48.1022 107.684 47.6829 107.506 47.1543 107.506ZM55.9248 112.325L58.4404 106.604H60.0195V114H58.7549V108.62L56.3623 114H55.4873L53.0469 108.504V114H51.7822V106.604H53.4229L55.9248 112.325ZM63.4375 109.153H65.3584C66.1969 109.162 66.86 109.381 67.3477 109.81C67.8353 110.238 68.0791 110.819 68.0791 111.553C68.0791 112.291 67.8285 112.883 67.3271 113.33C66.8258 113.777 66.1514 114 65.3037 114H62.1729V106.604H63.4375V109.153ZM63.4375 110.186V112.968H65.3174C65.7913 112.968 66.1582 112.847 66.418 112.605C66.6777 112.359 66.8076 112.024 66.8076 111.601C66.8076 111.19 66.68 110.855 66.4248 110.596C66.1742 110.331 65.821 110.195 65.3652 110.186H63.4375ZM75.3115 106.604V114H74.04V111.122H72.1328L70.3896 114H69.0225L70.8818 110.931C70.4079 110.757 70.0433 110.491 69.7881 110.131C69.5374 109.766 69.4121 109.342 69.4121 108.859C69.4121 108.185 69.665 107.643 70.1709 107.232C70.6768 106.818 71.3535 106.608 72.2012 106.604H75.3115ZM70.6836 108.873C70.6836 109.233 70.8066 109.525 71.0527 109.748C71.2988 109.967 71.6247 110.078 72.0303 110.083H74.04V107.629H72.2217C71.7523 107.629 71.3786 107.745 71.1006 107.978C70.8226 108.205 70.6836 108.504 70.6836 108.873ZM81.6006 112.325L84.1162 106.604H85.6953V114H84.4307V108.62L82.0381 114H81.1631L78.7227 108.504V114H77.458V106.604H79.0986L81.6006 112.325ZM87.6914 115.982L86.9736 115.49C87.402 114.893 87.6253 114.278 87.6436 113.645V112.503H88.8809V113.494C88.8809 113.954 88.7669 114.415 88.5391 114.875C88.3158 115.335 88.0332 115.704 87.6914 115.982ZM93.6182 110.233C93.6182 109.509 93.7594 108.857 94.042 108.278C94.3291 107.7 94.7256 107.253 95.2314 106.938C95.7419 106.624 96.3229 106.467 96.9746 106.467C97.9818 106.467 98.7952 106.815 99.415 107.513C100.039 108.21 100.352 109.137 100.352 110.295V110.384C100.352 111.104 100.213 111.751 99.9346 112.325C99.6611 112.895 99.2669 113.339 98.752 113.658C98.2415 113.977 97.6536 114.137 96.9883 114.137C95.9857 114.137 95.1722 113.788 94.5479 113.091C93.9281 112.394 93.6182 111.471 93.6182 110.322V110.233ZM94.8896 110.384C94.8896 111.204 95.0788 111.863 95.457 112.359C95.8398 112.856 96.3503 113.104 96.9883 113.104C97.6309 113.104 98.1413 112.854 98.5195 112.353C98.8978 111.847 99.0869 111.14 99.0869 110.233C99.0869 109.422 98.8932 108.766 98.5059 108.265C98.123 107.759 97.6126 107.506 96.9746 107.506C96.3503 107.506 95.8467 107.754 95.4639 108.251C95.0811 108.748 94.8896 109.459 94.8896 110.384ZM105.185 107.027C106.114 107.027 106.857 107.34 107.413 107.964C107.974 108.584 108.254 109.402 108.254 110.418V110.534C108.254 111.231 108.119 111.856 107.851 112.407C107.582 112.954 107.194 113.38 106.688 113.686C106.187 113.986 105.608 114.137 104.952 114.137C103.959 114.137 103.159 113.806 102.553 113.146C101.947 112.48 101.644 111.589 101.644 110.473V109.857C101.644 108.303 101.931 107.068 102.505 106.152C103.084 105.236 103.936 104.678 105.062 104.478C105.7 104.364 106.13 104.225 106.354 104.061C106.577 103.896 106.688 103.671 106.688 103.384H107.728C107.728 103.953 107.598 104.398 107.338 104.717C107.083 105.036 106.673 105.261 106.107 105.394L105.164 105.605C104.412 105.783 103.847 106.084 103.469 106.508C103.095 106.927 102.851 107.488 102.737 108.189C103.407 107.415 104.223 107.027 105.185 107.027ZM104.938 108.066C104.319 108.066 103.826 108.276 103.462 108.695C103.097 109.11 102.915 109.687 102.915 110.425V110.534C102.915 111.327 103.097 111.956 103.462 112.421C103.831 112.881 104.328 113.111 104.952 113.111C105.581 113.111 106.078 112.879 106.442 112.414C106.807 111.949 106.989 111.27 106.989 110.377C106.989 109.68 106.805 109.121 106.436 108.702C106.071 108.278 105.572 108.066 104.938 108.066ZM115.801 110.384C115.801 111.509 115.543 112.416 115.028 113.104C114.513 113.793 113.816 114.137 112.937 114.137C112.039 114.137 111.332 113.852 110.817 113.282V116.844H109.553V106.604H110.708L110.77 107.424C111.285 106.786 112 106.467 112.916 106.467C113.805 106.467 114.507 106.802 115.021 107.472C115.541 108.142 115.801 109.074 115.801 110.268V110.384ZM114.536 110.24C114.536 109.406 114.358 108.748 114.003 108.265C113.647 107.782 113.16 107.54 112.54 107.54C111.774 107.54 111.2 107.88 110.817 108.559V112.093C111.196 112.767 111.774 113.104 112.554 113.104C113.16 113.104 113.641 112.865 113.996 112.387C114.356 111.904 114.536 111.188 114.536 110.24ZM121.98 114C121.908 113.854 121.848 113.594 121.803 113.221C121.215 113.831 120.513 114.137 119.697 114.137C118.968 114.137 118.369 113.932 117.899 113.521C117.435 113.107 117.202 112.583 117.202 111.949C117.202 111.179 117.494 110.582 118.077 110.158C118.665 109.73 119.49 109.516 120.552 109.516H121.782V108.935C121.782 108.493 121.65 108.142 121.386 107.882C121.121 107.618 120.732 107.485 120.217 107.485C119.766 107.485 119.387 107.599 119.082 107.827C118.777 108.055 118.624 108.331 118.624 108.654H117.353C117.353 108.285 117.482 107.93 117.742 107.588C118.007 107.242 118.362 106.968 118.809 106.768C119.26 106.567 119.754 106.467 120.292 106.467C121.144 106.467 121.812 106.681 122.295 107.109C122.778 107.533 123.029 108.119 123.047 108.866V112.271C123.047 112.95 123.133 113.49 123.307 113.891V114H121.98ZM119.882 113.036C120.278 113.036 120.654 112.934 121.01 112.729C121.365 112.523 121.623 112.257 121.782 111.929V110.411H120.791C119.242 110.411 118.467 110.865 118.467 111.771C118.467 112.168 118.599 112.478 118.863 112.701C119.128 112.924 119.467 113.036 119.882 113.036ZM130.416 107.629H127.935V114H126.67V107.629H124.236V106.604H130.416V107.629ZM136.432 106.604H137.696V114H136.432V108.606L133.021 114H131.756V106.604H133.021V112.004L136.432 106.604ZM139.843 114V106.604H142.728C143.712 106.604 144.466 106.777 144.99 107.123C145.519 107.465 145.783 107.968 145.783 108.634C145.783 108.976 145.681 109.285 145.476 109.563C145.271 109.837 144.967 110.047 144.566 110.192C145.013 110.297 145.371 110.502 145.64 110.808C145.913 111.113 146.05 111.478 146.05 111.901C146.05 112.58 145.799 113.1 145.298 113.46C144.801 113.82 144.097 114 143.186 114H139.843ZM141.107 110.753V112.981H143.199C143.728 112.981 144.122 112.883 144.382 112.688C144.646 112.492 144.778 112.216 144.778 111.86C144.778 111.122 144.236 110.753 143.151 110.753H141.107ZM141.107 109.741H142.741C143.926 109.741 144.519 109.395 144.519 108.702C144.519 108.009 143.958 107.652 142.837 107.629H141.107V109.741ZM149.105 106.604V112.968H151.812V106.604H153.077V112.968H155.777V106.604H157.049V114H147.834V106.604H149.105ZM163.83 106.604H165.095V114H163.83V108.606L160.419 114H159.154V106.604H160.419V112.004L163.83 106.604ZM171.384 112.325L173.899 106.604H175.479V114H174.214V108.62L171.821 114H170.946L168.506 108.504V114H167.241V106.604H168.882L171.384 112.325ZM180.482 113.104C180.934 113.104 181.328 112.968 181.665 112.694C182.002 112.421 182.189 112.079 182.226 111.669H183.422C183.399 112.093 183.253 112.496 182.984 112.879C182.715 113.262 182.355 113.567 181.904 113.795C181.458 114.023 180.984 114.137 180.482 114.137C179.475 114.137 178.673 113.802 178.076 113.132C177.484 112.457 177.188 111.537 177.188 110.37V110.158C177.188 109.438 177.32 108.798 177.584 108.237C177.848 107.677 178.227 107.242 178.719 106.932C179.215 106.622 179.801 106.467 180.476 106.467C181.305 106.467 181.993 106.715 182.54 107.212C183.091 107.709 183.385 108.354 183.422 109.146H182.226C182.189 108.668 182.007 108.276 181.679 107.971C181.355 107.661 180.954 107.506 180.476 107.506C179.833 107.506 179.334 107.738 178.979 108.203C178.628 108.663 178.452 109.331 178.452 110.206V110.445C178.452 111.298 178.628 111.954 178.979 112.414C179.329 112.874 179.831 113.104 180.482 113.104ZM190.497 106.604V114H189.226V111.122H187.318L185.575 114H184.208L186.067 110.931C185.593 110.757 185.229 110.491 184.974 110.131C184.723 109.766 184.598 109.342 184.598 108.859C184.598 108.185 184.851 107.643 185.356 107.232C185.862 106.818 186.539 106.608 187.387 106.604H190.497ZM185.869 108.873C185.869 109.233 185.992 109.525 186.238 109.748C186.484 109.967 186.81 110.078 187.216 110.083H189.226V107.629H187.407C186.938 107.629 186.564 107.745 186.286 107.978C186.008 108.205 185.869 108.504 185.869 108.873ZM56.6152 130.849H55.6924V134H54.4209V126.604H55.6924V129.734H56.5195L59.0078 126.604H60.5391L57.6133 130.158L60.7852 134H59.1787L56.6152 130.849ZM71.3877 134H70.123V130.842H66.7256V134H65.4541V126.604H66.7256V129.81H70.123V126.604H71.3877V134ZM77.9912 134C77.9183 133.854 77.859 133.594 77.8135 133.221C77.2256 133.831 76.5238 134.137 75.708 134.137C74.9788 134.137 74.3796 133.932 73.9102 133.521C73.4453 133.107 73.2129 132.583 73.2129 131.949C73.2129 131.179 73.5046 130.582 74.0879 130.158C74.6758 129.73 75.5007 129.516 76.5625 129.516H77.793V128.935C77.793 128.493 77.6608 128.142 77.3965 127.882C77.1322 127.618 76.7425 127.485 76.2275 127.485C75.7764 127.485 75.3981 127.599 75.0928 127.827C74.7874 128.055 74.6348 128.331 74.6348 128.654H73.3633C73.3633 128.285 73.4932 127.93 73.7529 127.588C74.0173 127.242 74.3727 126.968 74.8193 126.768C75.2705 126.567 75.765 126.467 76.3027 126.467C77.1549 126.467 77.8226 126.681 78.3057 127.109C78.7887 127.533 79.0394 128.119 79.0576 128.866V132.271C79.0576 132.95 79.1442 133.49 79.3174 133.891V134H77.9912ZM75.8926 133.036C76.2891 133.036 76.665 132.934 77.0205 132.729C77.376 132.523 77.6335 132.257 77.793 131.929V130.411H76.8018C75.2523 130.411 74.4775 130.865 74.4775 131.771C74.4775 132.168 74.6097 132.478 74.874 132.701C75.1383 132.924 75.4779 133.036 75.8926 133.036ZM85.2988 132.325L87.8145 126.604H89.3936V134H88.1289V128.62L85.7363 134H84.8613L82.4209 128.504V134H81.1562V126.604H82.7969L85.2988 132.325ZM91.3896 135.982L90.6719 135.49C91.1003 134.893 91.3236 134.278 91.3418 133.645V132.503H92.5791V133.494C92.5791 133.954 92.4652 134.415 92.2373 134.875C92.014 135.335 91.7314 135.704 91.3896 135.982ZM101.91 132.325L104.426 126.604H106.005V134H104.74V128.62L102.348 134H101.473L99.0322 128.504V134H97.7676V126.604H99.4082L101.91 132.325ZM109.423 129.153H111.344C112.182 129.162 112.845 129.381 113.333 129.81C113.821 130.238 114.064 130.819 114.064 131.553C114.064 132.291 113.814 132.883 113.312 133.33C112.811 133.777 112.137 134 111.289 134H108.158V126.604H109.423V129.153ZM116.703 134H115.432V126.604H116.703V134ZM109.423 130.186V132.968H111.303C111.777 132.968 112.144 132.847 112.403 132.605C112.663 132.359 112.793 132.024 112.793 131.601C112.793 131.19 112.665 130.855 112.41 130.596C112.16 130.331 111.806 130.195 111.351 130.186H109.423ZM128.434 134H127.169V127.649H123.765V134H122.493V126.604H128.434V134ZM130.129 130.233C130.129 129.509 130.27 128.857 130.553 128.278C130.84 127.7 131.236 127.253 131.742 126.938C132.253 126.624 132.834 126.467 133.485 126.467C134.493 126.467 135.306 126.815 135.926 127.513C136.55 128.21 136.862 129.137 136.862 130.295V130.384C136.862 131.104 136.723 131.751 136.445 132.325C136.172 132.895 135.778 133.339 135.263 133.658C134.752 133.977 134.164 134.137 133.499 134.137C132.496 134.137 131.683 133.788 131.059 133.091C130.439 132.394 130.129 131.471 130.129 130.322V130.233ZM131.4 130.384C131.4 131.204 131.59 131.863 131.968 132.359C132.351 132.856 132.861 133.104 133.499 133.104C134.142 133.104 134.652 132.854 135.03 132.353C135.409 131.847 135.598 131.14 135.598 130.233C135.598 129.422 135.404 128.766 135.017 128.265C134.634 127.759 134.123 127.506 133.485 127.506C132.861 127.506 132.357 127.754 131.975 128.251C131.592 128.748 131.4 129.459 131.4 130.384ZM142.707 132.325L145.223 126.604H146.802V134H145.537V128.62L143.145 134H142.27L139.829 128.504V134H138.564V126.604H140.205L142.707 132.325ZM148.504 130.233C148.504 129.509 148.645 128.857 148.928 128.278C149.215 127.7 149.611 127.253 150.117 126.938C150.628 126.624 151.209 126.467 151.86 126.467C152.868 126.467 153.681 126.815 154.301 127.513C154.925 128.21 155.237 129.137 155.237 130.295V130.384C155.237 131.104 155.098 131.751 154.82 132.325C154.547 132.895 154.153 133.339 153.638 133.658C153.127 133.977 152.539 134.137 151.874 134.137C150.871 134.137 150.058 133.788 149.434 133.091C148.814 132.394 148.504 131.471 148.504 130.322V130.233ZM149.775 130.384C149.775 131.204 149.965 131.863 150.343 132.359C150.726 132.856 151.236 133.104 151.874 133.104C152.517 133.104 153.027 132.854 153.405 132.353C153.784 131.847 153.973 131.14 153.973 130.233C153.973 129.422 153.779 128.766 153.392 128.265C153.009 127.759 152.498 127.506 151.86 127.506C151.236 127.506 150.732 127.754 150.35 128.251C149.967 128.748 149.775 129.459 149.775 130.384ZM161.602 127.649H158.19V134H156.919V126.604H161.602V127.649ZM168.492 126.604V134H167.221V127.649H164.705L164.555 130.418C164.473 131.689 164.258 132.599 163.912 133.146C163.57 133.692 163.026 133.977 162.278 134H161.772V132.886L162.135 132.858C162.545 132.813 162.839 132.576 163.017 132.147C163.194 131.719 163.308 130.926 163.358 129.769L163.495 126.604H168.492ZM175.308 126.604H176.572V134H175.308V128.606L171.896 134H170.632V126.604H171.896V132.004L175.308 126.604Z" fill="#706A5E"/>
</g>
<defs>
<clipPath id="clip0_39_4844">
<rect width="232" height="183" fill="white"/>
</clipPath>
</defs>
</svg>
