<svg width="15" height="15" viewBox="0 0 15 15" fill="none" xmlns="http://www.w3.org/2000/svg">
<path d="M14.3133 7.2705C14.3133 11.0067 11.2638 14.041 7.49526 14.041C3.7267 14.041 0.677246 11.0067 0.677246 7.2705C0.677246 3.53432 3.7267 0.5 7.49526 0.5C11.2638 0.5 14.3133 3.53432 14.3133 7.2705Z" stroke="#5E727C"/>
<path d="M9.27294 7.68363L9.44543 6.48746H8.36693V5.71122C8.36693 5.38397 8.51759 5.06498 9.00062 5.06498H9.49092V4.04657C9.49092 4.04657 9.04598 3.96576 8.62057 3.96576C7.73239 3.96576 7.15184 4.53867 7.15184 5.5758V6.48746H6.16455V7.68363H7.15184V10.5753H8.36693V7.68363H9.27294Z" fill="#5E727C"/>
</svg>
