<svg width="15" height="15" viewBox="0 0 15 15" fill="none" xmlns="http://www.w3.org/2000/svg">
<path d="M13.5353 7.2705C13.5353 11.0299 10.6191 14.041 7.06573 14.041C3.51241 14.041 0.596191 11.0299 0.596191 7.2705C0.596191 3.51112 3.51241 0.5 7.06573 0.5C10.6191 0.5 13.5353 3.51112 13.5353 7.2705Z" stroke="#5E727C"/>
<path d="M7.0666 5.57593C6.07773 5.57593 5.2801 6.33253 5.2801 7.27053C5.2801 8.20854 6.07773 8.96514 7.0666 8.96514C8.05548 8.96514 8.85311 8.20854 8.85311 7.27053C8.85311 6.33253 8.05548 5.57593 7.0666 5.57593ZM7.0666 8.37225C6.42757 8.37225 5.90514 7.87817 5.90514 7.27053C5.90514 6.66289 6.42601 6.16882 7.0666 6.16882C7.70719 6.16882 8.22806 6.66289 8.22806 7.27053C8.22806 7.87817 7.70564 8.37225 7.0666 8.37225ZM9.34288 5.50661C9.34288 5.72636 9.1563 5.90187 8.92618 5.90187C8.69451 5.90187 8.50949 5.72489 8.50949 5.50661C8.50949 5.28833 8.69607 5.11135 8.92618 5.11135C9.1563 5.11135 9.34288 5.28833 9.34288 5.50661ZM10.5261 5.90777C10.4997 5.3783 10.3722 4.9093 9.96326 4.52288C9.55589 4.13647 9.06145 4.01554 8.50327 3.98899C7.92798 3.95802 6.20367 3.95802 5.62838 3.98899C5.07175 4.01406 4.57731 4.135 4.16839 4.52141C3.75947 4.90782 3.63353 5.37682 3.60554 5.90629C3.57289 6.45199 3.57289 8.0876 3.60554 8.63329C3.63198 9.16277 3.75947 9.63177 4.16839 10.0182C4.57731 10.4046 5.0702 10.5255 5.62838 10.5521C6.20367 10.583 7.92798 10.583 8.50327 10.5521C9.06145 10.527 9.55589 10.4061 9.96326 10.0182C10.3706 9.63177 10.4981 9.16277 10.5261 8.63329C10.5588 8.0876 10.5588 6.45346 10.5261 5.90777ZM9.7829 9.21881C9.66162 9.50788 9.42684 9.73058 9.12054 9.8471C8.66186 10.0197 7.57348 9.97983 7.0666 9.97983C6.55973 9.97983 5.46979 10.0182 5.01267 9.8471C4.70792 9.73206 4.47314 9.50936 4.35031 9.21881C4.16839 8.78373 4.21037 7.75133 4.21037 7.27053C4.21037 6.78973 4.16995 5.75586 4.35031 5.32225C4.47159 5.03318 4.70637 4.81048 5.01267 4.69397C5.47134 4.52141 6.55973 4.56123 7.0666 4.56123C7.57348 4.56123 8.66342 4.52288 9.12054 4.69397C9.42529 4.80901 9.66007 5.03171 9.7829 5.32225C9.96481 5.75733 9.92283 6.78973 9.92283 7.27053C9.92283 7.75133 9.96481 8.7852 9.7829 9.21881Z" fill="#5E727C"/>
</svg>
