<svg width="15" height="15" viewBox="0 0 15 15" fill="none" xmlns="http://www.w3.org/2000/svg">
<path d="M13.5353 7.2705C13.5353 11.0299 10.6191 14.041 7.06573 14.041C3.51241 14.041 0.596191 11.0299 0.596191 7.2705C0.596191 3.51112 3.51241 0.5 7.06573 0.5C10.6191 0.5 13.5353 3.51112 13.5353 7.2705Z" stroke="white"/>
<path d="M7.0666 5.57599C6.07773 5.57599 5.2801 6.33259 5.2801 7.27059C5.2801 8.2086 6.07773 8.9652 7.0666 8.9652C8.05548 8.9652 8.85311 8.2086 8.85311 7.27059C8.85311 6.33259 8.05548 5.57599 7.0666 5.57599ZM7.0666 8.37231C6.42757 8.37231 5.90514 7.87823 5.90514 7.27059C5.90514 6.66295 6.42601 6.16888 7.0666 6.16888C7.70719 6.16888 8.22806 6.66295 8.22806 7.27059C8.22806 7.87823 7.70564 8.37231 7.0666 8.37231ZM9.34288 5.50667C9.34288 5.72642 9.1563 5.90193 8.92618 5.90193C8.69451 5.90193 8.50949 5.72495 8.50949 5.50667C8.50949 5.28839 8.69607 5.11141 8.92618 5.11141C9.1563 5.11141 9.34288 5.28839 9.34288 5.50667ZM10.5261 5.90783C10.4997 5.37836 10.3722 4.90936 9.96326 4.52295C9.55589 4.13653 9.06145 4.0156 8.50327 3.98905C7.92798 3.95808 6.20367 3.95808 5.62838 3.98905C5.07175 4.01412 4.57731 4.13506 4.16839 4.52147C3.75947 4.90788 3.63353 5.37688 3.60554 5.90636C3.57289 6.45205 3.57289 8.08766 3.60554 8.63336C3.63198 9.16283 3.75947 9.63183 4.16839 10.0182C4.57731 10.4047 5.0702 10.5256 5.62838 10.5521C6.20367 10.5831 7.92798 10.5831 8.50327 10.5521C9.06145 10.5271 9.55589 10.4061 9.96326 10.0182C10.3706 9.63183 10.4981 9.16283 10.5261 8.63336C10.5588 8.08766 10.5588 6.45353 10.5261 5.90783ZM9.7829 9.21887C9.66162 9.50794 9.42684 9.73065 9.12054 9.84716C8.66186 10.0197 7.57348 9.9799 7.0666 9.9799C6.55973 9.9799 5.46979 10.0182 5.01267 9.84716C4.70792 9.73212 4.47314 9.50942 4.35031 9.21887C4.16839 8.78379 4.21037 7.75139 4.21037 7.27059C4.21037 6.78979 4.16995 5.75592 4.35031 5.32231C4.47159 5.03324 4.70637 4.81054 5.01267 4.69403C5.47134 4.52147 6.55973 4.56129 7.0666 4.56129C7.57348 4.56129 8.66342 4.52295 9.12054 4.69403C9.42529 4.80907 9.66007 5.03177 9.7829 5.32231C9.96481 5.7574 9.92283 6.78979 9.92283 7.27059C9.92283 7.75139 9.96481 8.78527 9.7829 9.21887Z" fill="white"/>
</svg>
