<svg width="16" height="15" viewBox="0 0 16 15" fill="none" xmlns="http://www.w3.org/2000/svg">
<path d="M14.8206 7.2705C14.8206 11.0067 11.7712 14.041 8.00259 14.041C4.23403 14.041 1.18457 11.0067 1.18457 7.2705C1.18457 3.53432 4.23403 0.5 8.00259 0.5C11.7712 0.5 14.8206 3.53432 14.8206 7.2705Z" stroke="#5E727C"/>
<path d="M9.4939 8.27611C9.13877 8.50067 8.65014 8.58971 8.32742 8.62327L8.5983 8.88911L9.58722 9.87378C9.94883 10.2429 9.36041 10.8197 8.99491 10.4636C8.74735 10.2132 8.38444 9.85185 8.00598 9.47501L7.01706 10.4623C6.65156 10.8172 6.06313 10.2351 6.42863 9.87249C6.68008 9.62213 7.03909 9.26078 7.41756 8.88782L7.68455 8.62197C7.36571 8.58842 6.86931 8.50454 6.51029 8.27482C6.08776 8.00381 5.90242 7.84508 6.06573 7.51341C6.16164 7.325 6.42474 7.16626 6.77339 7.43985C6.77339 7.43985 7.24388 7.81282 8.00339 7.81282C8.76291 7.81282 9.23339 7.43985 9.23339 7.43985C9.58204 7.16755 9.84385 7.325 9.94106 7.51341C10.1018 7.84508 9.91643 8.00381 9.4939 8.27611ZM6.32106 5.63957C6.32106 4.71426 7.07668 3.96576 8.0021 3.96576C8.92751 3.96576 9.68313 4.71426 9.68313 5.63957C9.68313 6.56101 8.92751 7.30951 8.0021 7.30951C7.07668 7.30951 6.32106 6.56101 6.32106 5.63957ZM7.17648 5.63957C7.17648 6.09255 7.54717 6.46164 8.0021 6.46164C8.45703 6.46164 8.82771 6.09255 8.82771 5.63957C8.82771 5.18272 8.45703 4.81363 8.0021 4.81363C7.54717 4.81363 7.17648 5.18272 7.17648 5.63957Z" fill="#5E727C"/>
</svg>
