<svg width="25" height="24" viewBox="0 0 25 24" fill="none" xmlns="http://www.w3.org/2000/svg">
<path d="M10.0753 3C11.7992 3 13.4525 3.68482 14.6715 4.90381C15.8905 6.12279 16.5753 7.77609 16.5753 9.5C16.5753 11.11 15.9853 12.59 15.0153 13.73L15.2853 14H16.0753L21.0753 19L19.5753 20.5L14.5753 15.5V14.71L14.3053 14.44C13.1259 15.4468 11.626 15.9999 10.0753 16C8.35141 16 6.69811 15.3152 5.47912 14.0962C4.26014 12.8772 3.57532 11.2239 3.57532 9.5C3.57532 7.77609 4.26014 6.12279 5.47912 4.90381C6.69811 3.68482 8.35141 3 10.0753 3ZM10.0753 5C7.57532 5 5.57532 7 5.57532 9.5C5.57532 12 7.57532 14 10.0753 14C12.5753 14 14.5753 12 14.5753 9.5C14.5753 7 12.5753 5 10.0753 5Z" fill="#5E727C"/>
</svg>
