<svg width="232" height="183" viewBox="0 0 232 183" fill="none" xmlns="http://www.w3.org/2000/svg">
<g clip-path="url(#clip0_39_4852)">
<path d="M81.6445 67H71.4844V27.8359L59.3555 31.5977V23.3359L80.5547 15.7422H81.6445V67ZM132.762 45.8359C132.762 52.9141 131.297 58.3281 128.367 62.0781C125.438 65.8281 121.148 67.7031 115.5 67.7031C109.922 67.7031 105.656 65.8633 102.703 62.1836C99.75 58.5039 98.2383 53.2305 98.168 46.3633V36.9414C98.168 29.793 99.6445 24.3672 102.598 20.6641C105.574 16.9609 109.852 15.1094 115.43 15.1094C121.008 15.1094 125.273 16.9492 128.227 20.6289C131.18 24.2852 132.691 29.5469 132.762 36.4141V45.8359ZM122.602 35.5C122.602 31.2578 122.016 28.1758 120.844 26.2539C119.695 24.3086 117.891 23.3359 115.43 23.3359C113.039 23.3359 111.27 24.2617 110.121 26.1133C108.996 27.9414 108.398 30.8125 108.328 34.7266V47.1719C108.328 51.3438 108.891 54.4492 110.016 56.4883C111.164 58.5039 112.992 59.5117 115.5 59.5117C117.984 59.5117 119.777 58.5391 120.879 56.5938C121.98 54.6484 122.555 51.6719 122.602 47.6641V35.5ZM174.105 45.8359C174.105 52.9141 172.641 58.3281 169.711 62.0781C166.781 65.8281 162.492 67.7031 156.844 67.7031C151.266 67.7031 147 65.8633 144.047 62.1836C141.094 58.5039 139.582 53.2305 139.512 46.3633V36.9414C139.512 29.793 140.988 24.3672 143.941 20.6641C146.918 16.9609 151.195 15.1094 156.773 15.1094C162.352 15.1094 166.617 16.9492 169.57 20.6289C172.523 24.2852 174.035 29.5469 174.105 36.4141V45.8359ZM163.945 35.5C163.945 31.2578 163.359 28.1758 162.188 26.2539C161.039 24.3086 159.234 23.3359 156.773 23.3359C154.383 23.3359 152.613 24.2617 151.465 26.1133C150.34 27.9414 149.742 30.8125 149.672 34.7266V47.1719C149.672 51.3438 150.234 54.4492 151.359 56.4883C152.508 58.5039 154.336 59.5117 156.844 59.5117C159.328 59.5117 161.121 58.5391 162.223 56.5938C163.324 54.6484 163.898 51.6719 163.945 47.6641V35.5Z" fill="#D35F8E"/>
<path d="M44.7085 42H1V182H231V42H188.565" stroke="#B7C136"/>
<path d="M49.0615 110.849H48.1387V114H46.8672V106.604H48.1387V109.734H48.9658L51.4541 106.604H52.9854L50.0596 110.158L53.2314 114H51.625L49.0615 110.849ZM54.4346 114V106.604H57.3193C58.3037 106.604 59.0579 106.777 59.582 107.123C60.1107 107.465 60.375 107.968 60.375 108.634C60.375 108.976 60.2725 109.285 60.0674 109.563C59.8623 109.837 59.5592 110.047 59.1582 110.192C59.6048 110.297 59.9626 110.502 60.2314 110.808C60.5049 111.113 60.6416 111.478 60.6416 111.901C60.6416 112.58 60.391 113.1 59.8896 113.46C59.3929 113.82 58.6888 114 57.7773 114H54.4346ZM55.6992 110.753V112.981H57.791C58.3197 112.981 58.7139 112.883 58.9736 112.688C59.238 112.492 59.3701 112.216 59.3701 111.86C59.3701 111.122 58.8278 110.753 57.7432 110.753H55.6992ZM55.6992 109.741H57.333C58.5179 109.741 59.1104 109.395 59.1104 108.702C59.1104 108.009 58.5498 107.652 57.4287 107.629H55.6992V109.741ZM66.8828 114C66.8099 113.854 66.7507 113.594 66.7051 113.221C66.1172 113.831 65.4154 114.137 64.5996 114.137C63.8704 114.137 63.2712 113.932 62.8018 113.521C62.3369 113.107 62.1045 112.583 62.1045 111.949C62.1045 111.179 62.3962 110.582 62.9795 110.158C63.5674 109.73 64.3923 109.516 65.4541 109.516H66.6846V108.935C66.6846 108.493 66.5524 108.142 66.2881 107.882C66.0238 107.618 65.6341 107.485 65.1191 107.485C64.668 107.485 64.2897 107.599 63.9844 107.827C63.679 108.055 63.5264 108.331 63.5264 108.654H62.2549C62.2549 108.285 62.3848 107.93 62.6445 107.588C62.9089 107.242 63.2643 106.968 63.7109 106.768C64.1621 106.567 64.6566 106.467 65.1943 106.467C66.0465 106.467 66.7142 106.681 67.1973 107.109C67.6803 107.533 67.931 108.119 67.9492 108.866V112.271C67.9492 112.95 68.0358 113.49 68.209 113.891V114H66.8828ZM64.7842 113.036C65.1807 113.036 65.5566 112.934 65.9121 112.729C66.2676 112.523 66.5251 112.257 66.6846 111.929V110.411H65.6934C64.1439 110.411 63.3691 110.865 63.3691 111.771C63.3691 112.168 63.5013 112.478 63.7656 112.701C64.0299 112.924 64.3695 113.036 64.7842 113.036ZM75.9951 106.604V114H74.7236V107.649H72.208L72.0576 110.418C71.9756 111.689 71.7614 112.599 71.415 113.146C71.0732 113.692 70.5286 113.977 69.7812 114H69.2754V112.886L69.6377 112.858C70.0479 112.813 70.3418 112.576 70.5195 112.147C70.6973 111.719 70.8112 110.926 70.8613 109.769L70.998 106.604H75.9951ZM82.8105 106.604H84.0752V114H82.8105V108.606L79.3994 114H78.1348V106.604H79.3994V112.004L82.8105 106.604ZM85.832 110.438C85.832 109.203 86.0713 108.233 86.5498 107.526C87.0283 106.82 87.6846 106.467 88.5186 106.467C88.9059 106.467 89.2454 106.533 89.5371 106.665V103.5H90.8018V106.706C91.1208 106.547 91.4945 106.467 91.9229 106.467C92.7614 106.467 93.4199 106.82 93.8984 107.526C94.377 108.233 94.6162 109.251 94.6162 110.582C94.6162 111.671 94.377 112.537 93.8984 113.18C93.4245 113.822 92.7705 114.144 91.9365 114.144C91.4945 114.144 91.1162 114.071 90.8018 113.925V116.844H89.5371V113.945C89.2363 114.077 88.8923 114.144 88.5049 114.144C87.6755 114.144 87.0215 113.822 86.543 113.18C86.069 112.537 85.832 111.658 85.832 110.541V110.438ZM93.3516 110.438C93.3516 109.509 93.1921 108.789 92.873 108.278C92.554 107.763 92.1143 107.506 91.5537 107.506C91.2666 107.506 91.016 107.551 90.8018 107.643V112.995C91.0068 113.073 91.262 113.111 91.5674 113.111C92.1325 113.111 92.57 112.893 92.8799 112.455C93.1943 112.018 93.3516 111.345 93.3516 110.438ZM87.0967 110.582C87.0967 111.411 87.2448 112.04 87.541 112.469C87.8372 112.897 88.2633 113.111 88.8193 113.111C89.0837 113.111 89.3229 113.07 89.5371 112.988V107.622C89.3457 107.545 89.111 107.506 88.833 107.506C88.277 107.506 87.8486 107.754 87.5479 108.251C87.2471 108.748 87.0967 109.525 87.0967 110.582ZM101.049 106.604H102.313V114H101.049V108.606L97.6377 114H96.373V106.604H97.6377V112.004L101.049 106.604ZM104.453 106.604H105.725V112.968H109.129V106.604H110.394V112.968H111.275L111.152 116.194H110.018V114H104.453V106.604ZM117.428 106.604H118.692V114H117.428V108.606L114.017 114H112.752V106.604H114.017V112.004L117.428 106.604ZM126.971 110.384C126.971 111.509 126.713 112.416 126.198 113.104C125.683 113.793 124.986 114.137 124.106 114.137C123.209 114.137 122.502 113.852 121.987 113.282V116.844H120.723V106.604H121.878L121.939 107.424C122.454 106.786 123.17 106.467 124.086 106.467C124.975 106.467 125.676 106.802 126.191 107.472C126.711 108.142 126.971 109.074 126.971 110.268V110.384ZM125.706 110.24C125.706 109.406 125.528 108.748 125.173 108.265C124.817 107.782 124.33 107.54 123.71 107.54C122.944 107.54 122.37 107.88 121.987 108.559V112.093C122.366 112.767 122.944 113.104 123.724 113.104C124.33 113.104 124.811 112.865 125.166 112.387C125.526 111.904 125.706 111.188 125.706 110.24ZM128.249 110.233C128.249 109.509 128.39 108.857 128.673 108.278C128.96 107.7 129.356 107.253 129.862 106.938C130.373 106.624 130.954 106.467 131.605 106.467C132.613 106.467 133.426 106.815 134.046 107.513C134.67 108.21 134.982 109.137 134.982 110.295V110.384C134.982 111.104 134.843 111.751 134.565 112.325C134.292 112.895 133.898 113.339 133.383 113.658C132.872 113.977 132.285 114.137 131.619 114.137C130.617 114.137 129.803 113.788 129.179 113.091C128.559 112.394 128.249 111.471 128.249 110.322V110.233ZM129.521 110.384C129.521 111.204 129.71 111.863 130.088 112.359C130.471 112.856 130.981 113.104 131.619 113.104C132.262 113.104 132.772 112.854 133.15 112.353C133.529 111.847 133.718 111.14 133.718 110.233C133.718 109.422 133.524 108.766 133.137 108.265C132.754 107.759 132.243 107.506 131.605 107.506C130.981 107.506 130.478 107.754 130.095 108.251C129.712 108.748 129.521 109.459 129.521 110.384ZM136.685 114V106.604H139.569C140.554 106.604 141.308 106.777 141.832 107.123C142.361 107.465 142.625 107.968 142.625 108.634C142.625 108.976 142.522 109.285 142.317 109.563C142.112 109.837 141.809 110.047 141.408 110.192C141.855 110.297 142.213 110.502 142.481 110.808C142.755 111.113 142.892 111.478 142.892 111.901C142.892 112.58 142.641 113.1 142.14 113.46C141.643 113.82 140.939 114 140.027 114H136.685ZM137.949 110.753V112.981H140.041C140.57 112.981 140.964 112.883 141.224 112.688C141.488 112.492 141.62 112.216 141.62 111.86C141.62 111.122 141.078 110.753 139.993 110.753H137.949ZM137.949 109.741H139.583C140.768 109.741 141.36 109.395 141.36 108.702C141.36 108.009 140.8 107.652 139.679 107.629H137.949V109.741ZM149.133 114C149.06 113.854 149.001 113.594 148.955 113.221C148.367 113.831 147.665 114.137 146.85 114.137C146.12 114.137 145.521 113.932 145.052 113.521C144.587 113.107 144.354 112.583 144.354 111.949C144.354 111.179 144.646 110.582 145.229 110.158C145.817 109.73 146.642 109.516 147.704 109.516H148.935V108.935C148.935 108.493 148.802 108.142 148.538 107.882C148.274 107.618 147.884 107.485 147.369 107.485C146.918 107.485 146.54 107.599 146.234 107.827C145.929 108.055 145.776 108.331 145.776 108.654H144.505C144.505 108.285 144.635 107.93 144.895 107.588C145.159 107.242 145.514 106.968 145.961 106.768C146.412 106.567 146.907 106.467 147.444 106.467C148.297 106.467 148.964 106.681 149.447 107.109C149.93 107.533 150.181 108.119 150.199 108.866V112.271C150.199 112.95 150.286 113.49 150.459 113.891V114H149.133ZM147.034 113.036C147.431 113.036 147.807 112.934 148.162 112.729C148.518 112.523 148.775 112.257 148.935 111.929V110.411H147.943C146.394 110.411 145.619 110.865 145.619 111.771C145.619 112.168 145.751 112.478 146.016 112.701C146.28 112.924 146.619 113.036 147.034 113.036ZM158.225 114H156.96V110.842H153.562V114H152.291V106.604H153.562V109.81H156.96V106.604H158.225V114ZM166.305 114H165.04V110.842H161.643V114H160.371V106.604H161.643V109.81H165.04V106.604H166.305V114ZM169.723 109.153H171.644C172.482 109.162 173.145 109.381 173.633 109.81C174.12 110.238 174.364 110.819 174.364 111.553C174.364 112.291 174.114 112.883 173.612 113.33C173.111 113.777 172.437 114 171.589 114H168.458V106.604H169.723V109.153ZM177.003 114H175.731V106.604H177.003V114ZM169.723 110.186V112.968H171.603C172.076 112.968 172.443 112.847 172.703 112.605C172.963 112.359 173.093 112.024 173.093 111.601C173.093 111.19 172.965 110.855 172.71 110.596C172.459 110.331 172.106 110.195 171.65 110.186H169.723ZM181.692 109.304L183.333 106.604H184.81L182.39 110.261L184.885 114H183.422L181.713 111.231L180.004 114H178.534L181.029 110.261L178.609 106.604H180.072L181.692 109.304ZM77.4648 133.104C77.916 133.104 78.3102 132.968 78.6475 132.694C78.9847 132.421 79.1715 132.079 79.208 131.669H80.4043C80.3815 132.093 80.2357 132.496 79.9668 132.879C79.6979 133.262 79.3379 133.567 78.8867 133.795C78.4401 134.023 77.9661 134.137 77.4648 134.137C76.4577 134.137 75.6556 133.802 75.0586 133.132C74.4661 132.457 74.1699 131.537 74.1699 130.37V130.158C74.1699 129.438 74.3021 128.798 74.5664 128.237C74.8307 127.677 75.209 127.242 75.7012 126.932C76.1979 126.622 76.7835 126.467 77.458 126.467C78.2874 126.467 78.9756 126.715 79.5225 127.212C80.0739 127.709 80.3678 128.354 80.4043 129.146H79.208C79.1715 128.668 78.9893 128.276 78.6611 127.971C78.3376 127.661 77.9365 127.506 77.458 127.506C76.8154 127.506 76.3164 127.738 75.9609 128.203C75.61 128.663 75.4346 129.331 75.4346 130.206V130.445C75.4346 131.298 75.61 131.954 75.9609 132.414C76.3118 132.874 76.8132 133.104 77.4648 133.104ZM81.4912 130.233C81.4912 129.509 81.6325 128.857 81.915 128.278C82.2021 127.7 82.5986 127.253 83.1045 126.938C83.6149 126.624 84.196 126.467 84.8477 126.467C85.8548 126.467 86.6683 126.815 87.2881 127.513C87.9124 128.21 88.2246 129.137 88.2246 130.295V130.384C88.2246 131.104 88.0856 131.751 87.8076 132.325C87.5342 132.895 87.14 133.339 86.625 133.658C86.1146 133.977 85.5267 134.137 84.8613 134.137C83.8587 134.137 83.0452 133.788 82.4209 133.091C81.8011 132.394 81.4912 131.471 81.4912 130.322V130.233ZM82.7627 130.384C82.7627 131.204 82.9518 131.863 83.3301 132.359C83.7129 132.856 84.2233 133.104 84.8613 133.104C85.5039 133.104 86.0143 132.854 86.3926 132.353C86.7708 131.847 86.96 131.14 86.96 130.233C86.96 129.422 86.7663 128.766 86.3789 128.265C85.9961 127.759 85.4857 127.506 84.8477 127.506C84.2233 127.506 83.7197 127.754 83.3369 128.251C82.9541 128.748 82.7627 129.459 82.7627 130.384ZM95.1562 127.629H92.6748V134H91.4102V127.629H88.9766V126.604H95.1562V127.629ZM102.635 130.384C102.635 131.509 102.377 132.416 101.862 133.104C101.347 133.793 100.65 134.137 99.7705 134.137C98.8727 134.137 98.1663 133.852 97.6514 133.282V136.844H96.3867V126.604H97.542L97.6035 127.424C98.1185 126.786 98.834 126.467 99.75 126.467C100.639 126.467 101.34 126.802 101.855 127.472C102.375 128.142 102.635 129.074 102.635 130.268V130.384ZM101.37 130.24C101.37 129.406 101.192 128.748 100.837 128.265C100.481 127.782 99.9938 127.54 99.374 127.54C98.6084 127.54 98.0342 127.88 97.6514 128.559V132.093C98.0296 132.767 98.6084 133.104 99.3877 133.104C99.9938 133.104 100.475 132.865 100.83 132.387C101.19 131.904 101.37 131.188 101.37 130.24ZM106.586 132.147L108.309 126.604H109.662L106.688 135.142C106.228 136.372 105.497 136.987 104.494 136.987L104.255 136.967L103.783 136.878V135.853L104.125 135.88C104.553 135.88 104.886 135.793 105.123 135.62C105.365 135.447 105.563 135.13 105.718 134.67L105.998 133.918L103.359 126.604H104.74L106.586 132.147ZM110.353 132.968L110.79 132.428C111.282 131.79 111.562 130.833 111.631 129.557L111.747 126.604H116.512V132.968H117.462V136.174H116.197V134H111.036V136.174H109.771L109.778 132.968H110.353ZM111.85 132.968H115.247V127.772H112.971L112.896 129.536C112.818 131.008 112.469 132.152 111.85 132.968ZM124.906 134H123.642V130.842H120.244V134H118.973V126.604H120.244V129.81H123.642V126.604H124.906V134ZM131.729 126.604H132.993V134H131.729V128.606L128.317 134H127.053V126.604H128.317V132.004L131.729 126.604ZM137.327 130.849H136.404V134H135.133V126.604H136.404V129.734H137.231L139.72 126.604H141.251L138.325 130.158L141.497 134H139.891L137.327 130.849ZM142.099 130.233C142.099 129.509 142.24 128.857 142.522 128.278C142.81 127.7 143.206 127.253 143.712 126.938C144.222 126.624 144.803 126.467 145.455 126.467C146.462 126.467 147.276 126.815 147.896 127.513C148.52 128.21 148.832 129.137 148.832 130.295V130.384C148.832 131.104 148.693 131.751 148.415 132.325C148.142 132.895 147.747 133.339 147.232 133.658C146.722 133.977 146.134 134.137 145.469 134.137C144.466 134.137 143.653 133.788 143.028 133.091C142.409 132.394 142.099 131.471 142.099 130.322V130.233ZM143.37 130.384C143.37 131.204 143.559 131.863 143.938 132.359C144.32 132.856 144.831 133.104 145.469 133.104C146.111 133.104 146.622 132.854 147 132.353C147.378 131.847 147.567 131.14 147.567 130.233C147.567 129.422 147.374 128.766 146.986 128.265C146.604 127.759 146.093 127.506 145.455 127.506C144.831 127.506 144.327 127.754 143.944 128.251C143.562 128.748 143.37 129.459 143.37 130.384ZM150.534 134V126.604H153.419C154.403 126.604 155.158 126.777 155.682 127.123C156.21 127.465 156.475 127.968 156.475 128.634C156.475 128.976 156.372 129.285 156.167 129.563C155.962 129.837 155.659 130.047 155.258 130.192C155.704 130.297 156.062 130.502 156.331 130.808C156.604 131.113 156.741 131.478 156.741 131.901C156.741 132.58 156.491 133.1 155.989 133.46C155.493 133.82 154.788 134 153.877 134H150.534ZM151.799 130.753V132.981H153.891C154.419 132.981 154.813 132.883 155.073 132.688C155.338 132.492 155.47 132.216 155.47 131.86C155.47 131.122 154.927 130.753 153.843 130.753H151.799ZM151.799 129.741H153.433C154.618 129.741 155.21 129.395 155.21 128.702C155.21 128.009 154.649 127.652 153.528 127.629H151.799V129.741Z" fill="#706A5E"/>
<path d="M6.98828 29.0137C7.9362 29.0137 8.69271 29.3281 9.25781 29.957C9.82292 30.5859 10.1055 31.4404 10.1055 32.5205V32.6162C10.1055 33.6826 9.79102 34.5371 9.16211 35.1797C8.5332 35.8223 7.68783 36.1436 6.62598 36.1436C5.55957 36.1436 4.70964 35.7972 4.07617 35.1045C3.44727 34.4072 3.13281 33.4616 3.13281 32.2676V31.9395C3.14193 30.276 3.4222 28.9749 3.97363 28.0361C4.52962 27.0928 5.36361 26.498 6.47559 26.252C7.05892 26.1243 7.4349 25.999 7.60352 25.876C7.77214 25.7484 7.85645 25.5729 7.85645 25.3496H9.45605C9.45605 26.0651 9.26237 26.6029 8.875 26.9629C8.49219 27.3229 7.80859 27.6009 6.82422 27.7969C6.24089 27.9154 5.7806 28.1455 5.44336 28.4873C5.10612 28.8291 4.87826 29.3099 4.75977 29.9297C5.38867 29.319 6.13151 29.0137 6.98828 29.0137ZM6.6123 30.6133C6.1429 30.6133 5.77376 30.7705 5.50488 31.085C5.24056 31.3994 5.1084 31.9098 5.1084 32.6162C5.1084 33.2451 5.23828 33.7259 5.49805 34.0586C5.75781 34.3867 6.13379 34.5508 6.62598 34.5508C7.10449 34.5508 7.47363 34.389 7.7334 34.0654C7.99316 33.7419 8.12533 33.2656 8.12988 32.6367V32.4727C8.12988 31.8665 7.99544 31.4062 7.72656 31.0918C7.46224 30.7728 7.09082 30.6133 6.6123 30.6133ZM10.9805 32.2334C10.9805 31.4997 11.1217 30.8457 11.4043 30.2715C11.6868 29.6973 12.0924 29.2529 12.6211 28.9385C13.1543 28.624 13.7718 28.4668 14.4736 28.4668C15.4717 28.4668 16.2852 28.7721 16.9141 29.3828C17.5475 29.9935 17.9007 30.8229 17.9736 31.8711L17.9873 32.377C17.9873 33.5117 17.6706 34.4232 17.0371 35.1113C16.4036 35.7949 15.5537 36.1367 14.4873 36.1367C13.4209 36.1367 12.5687 35.7949 11.9307 35.1113C11.2972 34.4277 10.9805 33.498 10.9805 32.3223V32.2334ZM12.9561 32.377C12.9561 33.0788 13.0882 33.6165 13.3525 33.9902C13.6169 34.3594 13.9951 34.5439 14.4873 34.5439C14.9658 34.5439 15.3395 34.3617 15.6084 33.9971C15.8773 33.6279 16.0117 33.04 16.0117 32.2334C16.0117 31.5452 15.8773 31.012 15.6084 30.6338C15.3395 30.2555 14.9613 30.0664 14.4736 30.0664C13.9906 30.0664 13.6169 30.2555 13.3525 30.6338C13.0882 31.0075 12.9561 31.5885 12.9561 32.377ZM25.5273 28.6035V36H23.5518V30.2031H21.8086L21.6855 32.4863C21.6081 33.7031 21.3688 34.5895 20.9678 35.1455C20.5667 35.7015 19.9697 35.9863 19.1768 36H18.5068L18.4863 34.3936L18.7324 34.373C19.0879 34.3457 19.3477 34.1361 19.5117 33.7441C19.6758 33.3522 19.7783 32.6846 19.8193 31.7412L19.9561 28.6035H25.5273ZM30.4561 36.1367C29.3714 36.1367 28.4873 35.804 27.8037 35.1387C27.1247 34.4733 26.7852 33.5869 26.7852 32.4795V32.2881C26.7852 31.5452 26.9287 30.8822 27.2158 30.2988C27.5029 29.7109 27.9085 29.2598 28.4326 28.9453C28.9613 28.6263 29.5628 28.4668 30.2373 28.4668C31.249 28.4668 32.0443 28.7858 32.623 29.4238C33.2064 30.0618 33.498 30.9665 33.498 32.1377V32.9443H28.7881C28.8519 33.4274 29.0433 33.8148 29.3623 34.1064C29.6859 34.3981 30.0938 34.5439 30.5859 34.5439C31.347 34.5439 31.9417 34.2682 32.3701 33.7168L33.3408 34.8037C33.0446 35.223 32.6436 35.5511 32.1377 35.7881C31.6318 36.0205 31.0713 36.1367 30.4561 36.1367ZM30.2305 30.0664C29.8385 30.0664 29.5195 30.1986 29.2734 30.4629C29.0319 30.7272 28.877 31.1055 28.8086 31.5977H31.5566V31.4404C31.5475 31.0029 31.429 30.6657 31.2012 30.4287C30.9733 30.1872 30.6497 30.0664 30.2305 30.0664ZM38.0303 36.1367C36.9456 36.1367 36.0615 35.804 35.3779 35.1387C34.6989 34.4733 34.3594 33.5869 34.3594 32.4795V32.2881C34.3594 31.5452 34.5029 30.8822 34.79 30.2988C35.0771 29.7109 35.4827 29.2598 36.0068 28.9453C36.5355 28.6263 37.137 28.4668 37.8115 28.4668C38.8232 28.4668 39.6185 28.7858 40.1973 29.4238C40.7806 30.0618 41.0723 30.9665 41.0723 32.1377V32.9443H36.3623C36.4261 33.4274 36.6175 33.8148 36.9365 34.1064C37.2601 34.3981 37.668 34.5439 38.1602 34.5439C38.9212 34.5439 39.516 34.2682 39.9443 33.7168L40.915 34.8037C40.6188 35.223 40.2178 35.5511 39.7119 35.7881C39.2061 36.0205 38.6455 36.1367 38.0303 36.1367ZM37.8047 30.0664C37.4128 30.0664 37.0938 30.1986 36.8477 30.4629C36.6061 30.7272 36.4512 31.1055 36.3828 31.5977H39.1309V31.4404C39.1217 31.0029 39.0033 30.6657 38.7754 30.4287C38.5475 30.1872 38.224 30.0664 37.8047 30.0664Z" fill="#706A5E"/>
</g>
<defs>
<clipPath id="clip0_39_4852">
<rect width="232" height="183" fill="white"/>
</clipPath>
</defs>
</svg>
