<svg width="15" height="15" viewBox="0 0 15 15" fill="none" xmlns="http://www.w3.org/2000/svg">
<path d="M13.6929 7.2705C13.6929 11.0299 10.7766 14.041 7.22333 14.041C3.67001 14.041 0.753784 11.0299 0.753784 7.2705C0.753784 3.51112 3.67001 0.5 7.22333 0.5C10.7766 0.5 13.6929 3.51112 13.6929 7.2705Z" stroke="white"/>
<path d="M10.3113 5.94296C10.3144 6.00025 10.3155 6.05825 10.3155 6.11554C10.3155 7.8802 8.87728 9.91434 6.24742 9.91434C5.43948 9.91434 4.68836 9.69332 4.05542 9.31422C4.4298 9.35649 4.80942 9.32946 5.17261 9.23467C5.53579 9.13989 5.8754 8.97922 6.17204 8.76183C5.87372 8.75657 5.58462 8.6644 5.34516 8.49821C5.10569 8.33202 4.92784 8.10012 4.83646 7.83494C5.05088 7.87237 5.27154 7.86452 5.48228 7.81195C5.15866 7.75068 4.86767 7.58684 4.65864 7.34817C4.44961 7.10951 4.33539 6.81072 4.33534 6.50242V6.4858C4.53389 6.58892 4.75596 6.64627 4.98305 6.65307C4.67998 6.46443 4.46544 6.17492 4.38322 5.84362C4.301 5.51233 4.35731 5.16423 4.54064 4.87037C4.89964 5.28288 5.34757 5.62026 5.85533 5.86062C6.3631 6.10097 6.91934 6.23891 7.48792 6.26548C7.46332 6.16562 7.45099 6.06347 7.45118 5.961C7.45118 5.78575 7.48816 5.61221 7.56 5.45031C7.63184 5.2884 7.73715 5.14129 7.8699 5.01739C8.00264 4.89348 8.16023 4.79521 8.33367 4.72818C8.5071 4.66114 8.69298 4.62666 8.88069 4.62671C9.07632 4.62641 9.26992 4.66364 9.44949 4.7361C9.62907 4.80855 9.79078 4.91468 9.92461 5.0479C10.2447 4.98873 10.5517 4.87919 10.8325 4.72396C10.7257 5.03312 10.5023 5.29552 10.2038 5.46236C10.4872 5.43099 10.764 5.36019 11.025 5.2523C10.8332 5.52052 10.5915 5.75444 10.3113 5.94296Z" fill="white"/>
</svg>
