<svg width="15" height="15" viewBox="0 0 15 15" fill="none" xmlns="http://www.w3.org/2000/svg">
<path d="M13.693 7.2705C13.693 11.0299 10.7768 14.041 7.22345 14.041C3.67013 14.041 0.753906 11.0299 0.753906 7.2705C0.753906 3.51112 3.67013 0.5 7.22345 0.5C10.7768 0.5 13.693 3.51112 13.693 7.2705Z" stroke="#5E727C"/>
<path d="M10.3113 5.9429C10.3144 6.00019 10.3155 6.05819 10.3155 6.11548C10.3155 7.88014 8.87728 9.91428 6.24742 9.91428C5.43948 9.91428 4.68836 9.69326 4.05542 9.31416C4.4298 9.35642 4.80942 9.32939 5.17261 9.23461C5.53579 9.13983 5.8754 8.97916 6.17204 8.76177C5.87372 8.7565 5.58462 8.66434 5.34516 8.49815C5.10569 8.33196 4.92784 8.10006 4.83646 7.83488C5.05088 7.87231 5.27154 7.86446 5.48228 7.81189C5.15866 7.75062 4.86767 7.58678 4.65864 7.34811C4.44961 7.10945 4.33539 6.81065 4.33534 6.50236V6.48574C4.53389 6.58886 4.75596 6.64621 4.98305 6.65301C4.67998 6.46437 4.46544 6.17486 4.38322 5.84356C4.301 5.51227 4.35731 5.16417 4.54064 4.87031C4.89964 5.28282 5.34757 5.6202 5.85533 5.86056C6.3631 6.10091 6.91934 6.23885 7.48792 6.26542C7.46332 6.16556 7.45099 6.0634 7.45118 5.96094C7.45118 5.78568 7.48816 5.61215 7.56 5.45024C7.63184 5.28834 7.73715 5.14123 7.8699 5.01733C8.00264 4.89342 8.16023 4.79515 8.33367 4.72811C8.5071 4.66108 8.69298 4.6266 8.88069 4.62665C9.07632 4.62635 9.26992 4.66358 9.44949 4.73604C9.62907 4.80849 9.79078 4.91462 9.92461 5.04784C10.2447 4.98867 10.5517 4.87913 10.8325 4.7239C10.7257 5.03305 10.5023 5.29546 10.2038 5.4623C10.4872 5.43093 10.764 5.36013 11.025 5.25224C10.8332 5.52045 10.5915 5.75438 10.3113 5.9429Z" fill="#5E727C"/>
</svg>
