<svg width="15" height="15" viewBox="0 0 15 15" fill="none" xmlns="http://www.w3.org/2000/svg">
<path d="M14.136 7.2705C14.136 11.0067 11.0866 14.041 7.31802 14.041C3.54945 14.041 0.5 11.0067 0.5 7.2705C0.5 3.53432 3.54945 0.5 7.31802 0.5C11.0866 0.5 14.136 3.53432 14.136 7.2705Z" stroke="#5E727C"/>
<path fill-rule="evenodd" clip-rule="evenodd" d="M9.84023 8.53087C9.84023 8.53087 10.4319 9.17708 10.5782 9.47611C10.5811 9.48043 10.5833 9.4852 10.5848 9.49028C10.6445 9.60074 10.6591 9.68734 10.6298 9.75127C10.5804 9.85688 10.4132 9.90989 10.3565 9.91434H9.31077C9.23795 9.91434 9.08647 9.8933 8.90205 9.75248C8.76118 9.64363 8.62104 9.46438 8.48529 9.28917C8.28258 9.02898 8.10732 8.80319 7.92985 8.80319C7.90744 8.80314 7.88518 8.80724 7.86399 8.81533C7.72971 8.86227 7.5592 9.0739 7.5592 9.63757C7.5592 9.81399 7.43333 9.91434 7.34514 9.91434H6.86618C6.70299 9.91434 5.85336 9.85122 5.09997 8.97274C4.1768 7.8972 3.34767 5.73964 3.33962 5.72063C3.28803 5.58102 3.39634 5.50495 3.51342 5.50495H4.56942C4.71102 5.50495 4.75712 5.59964 4.78932 5.68461C4.82664 5.78213 4.96496 6.17221 5.19181 6.61043C5.55918 7.32342 5.78494 7.61354 5.96533 7.61354C5.99922 7.61365 6.03254 7.60388 6.06193 7.58522C6.29757 7.44198 6.25366 6.5113 6.24268 6.3195C6.24268 6.28227 6.24232 5.90393 6.12157 5.72103C6.03522 5.58993 5.88812 5.53894 5.79921 5.52033C5.82299 5.48229 5.87349 5.42402 5.93825 5.38963C6.09962 5.30061 6.39124 5.28766 6.68067 5.28766H6.8413C7.15524 5.29251 7.23647 5.31477 7.35063 5.34674C7.58042 5.40743 7.58481 5.57212 7.56468 6.13296C7.55883 6.2932 7.55261 6.47367 7.55261 6.6861C7.55261 6.73142 7.55078 6.782 7.55078 6.83339C7.54383 7.12109 7.53468 7.44521 7.71836 7.57834C7.74219 7.59475 7.7697 7.60344 7.79776 7.60343C7.86143 7.60343 8.05207 7.60343 8.56908 6.62217C8.79594 6.1888 8.97158 5.67773 8.98365 5.63929C8.9939 5.61785 9.02463 5.55756 9.06195 5.53328C9.0885 5.51766 9.11824 5.50985 9.14831 5.51062H10.3905C10.5259 5.51062 10.6178 5.53328 10.6357 5.58993C10.6657 5.68178 10.6298 5.9622 10.0627 6.81033C9.96719 6.95155 9.8834 7.07375 9.80986 7.18058C9.29576 7.92674 9.29576 7.96437 9.84023 8.53087Z" fill="#5E727C"/>
</svg>
